# xmcd
# 
# Track frame offsets:
#     150
#     17237
#     30320
#     51955
#     73817
#     94702
#     107162
#     122955
#     140335
#     154047
#     162452
#     178822
# 
# Disc length: 2608
# 
# Revision: 1
# Processed by: cddbd v1.5.2PL0 Copyright (c) Steve Scherf et al.
# Submitted via: fre:ac v1.0.31
# 
DISCID=a50a2e0c
DTITLE=MARK GOLDENBERG - Mark Goldenberg Best Selection
DYEAR=1987
DGENRE=Fusion
TTITLE0=Lover's Island
TTITLE1=Castaways
TTITLE2=L'invitation Au Voyage
TTITLE3=Hispaniola
TTITLE4=Return Trip Tango
TTITLE5=Queen Of Swords
TTITLE6=El Sol Y La Luna
TTITLE7=L'homme Et La Mer
TTITLE8=Terra Nostra
TTITLE9=Orpheus, No
TTITLE10=Pirate's Cove
TTITLE11=Tristesses De La Lune
EXTD=YEAR: 1987
EXTT0=
EXTT1=
EXTT2=
EXTT3=
EXTT4=
EXTT5=
EXTT6=
EXTT7=
EXTT8=
EXTT9=
EXTT10=
EXTT11=
PLAYORDER=
